<svg width="24" height="25" viewBox="0 0 24 25" fill="none" xmlns="http://www.w3.org/2000/svg">
<path d="M13 7H4" stroke="white" stroke-linecap="round" stroke-linejoin="round"/>
<path d="M20 7H18" stroke="white" stroke-linecap="round" stroke-linejoin="round"/>
<path d="M17.5 7C17.5 8.10457 16.6046 9 15.5 9C14.3954 9 13.5 8.10457 13.5 7C13.5 5.89543 14.3954 5 15.5 5C16.6046 5 17.5 5.89543 17.5 7Z" stroke="white"/>
<path d="M17.5 19C17.5 20.1046 16.6046 21 15.5 21C14.3954 21 13.5 20.1046 13.5 19C13.5 17.8954 14.3954 17 15.5 17C16.6046 17 17.5 17.8954 17.5 19Z" stroke="white"/>
<path d="M10.5 13C10.5 14.1046 9.60457 15 8.5 15C7.39543 15 6.5 14.1046 6.5 13C6.5 11.8954 7.39543 11 8.5 11C9.60457 11 10.5 11.8954 10.5 13Z" stroke="white"/>
<path d="M20 13H11" stroke="white" stroke-linecap="round" stroke-linejoin="round"/>
<path d="M6 13H4" stroke="white" stroke-linecap="round" stroke-linejoin="round"/>
<path d="M13 19H4" stroke="white" stroke-linecap="round" stroke-linejoin="round"/>
<path d="M20 19H18" stroke="white" stroke-linecap="round" stroke-linejoin="round"/>
</svg>
