    <svg
      width="40px"
      fill="#000000"
      viewBox="0 0 32 32"
      version="1.1"
      xmlns="http://www.w3.org/2000/svg"
    >
      <g id="SVGRepo_bgCarrier" stroke-width="0"></g>
      <g
        id="SVGRepo_tracerCarrier"
        stroke-linecap="round"
        stroke-linejoin="round"
      ></g>
      <g id="SVGRepo_iconCarrier">
        <title>alt-brightness</title>
        <path
          d="M2.016 16q0 0.832 0.576 1.44t1.408 0.576 1.408-0.576 0.608-1.44-0.608-1.408-1.408-0.576-1.408 0.576-0.576 1.408zM5.504 24.512q0 0.8 0.576 1.408t1.44 0.576 1.408-0.576 0.576-1.408-0.576-1.408-1.408-0.608-1.44 0.608-0.576 1.408zM5.504 7.52q0 0.832 0.576 1.408t1.44 0.576 1.408-0.576 0.576-1.408-0.576-1.408-1.408-0.608-1.44 0.608-0.576 1.408zM8 16q0 3.328 2.336 5.664t5.664 2.336 5.664-2.336 2.336-5.664-2.336-5.632-5.664-2.368-5.664 2.368-2.336 5.632zM12 16q0-1.632 1.184-2.816t2.816-1.184 2.816 1.184 1.184 2.816-1.184 2.848-2.816 1.152-2.816-1.152-1.184-2.848zM14.016 28q0 0.832 0.576 1.44t1.408 0.576 1.408-0.576 0.608-1.44-0.608-1.408-1.408-0.576-1.408 0.576-0.576 1.408zM14.016 4q0 0.832 0.576 1.44t1.408 0.576 1.408-0.576 0.608-1.44-0.608-1.408-1.408-0.576-1.408 0.576-0.576 1.408zM22.496 24.512q0 0.8 0.576 1.408t1.408 0.576 1.44-0.576 0.576-1.408-0.576-1.408-1.44-0.608-1.408 0.608-0.576 1.408zM22.496 7.52q0 0.832 0.576 1.408t1.408 0.576 1.44-0.576 0.576-1.408-0.576-1.408-1.44-0.608-1.408 0.608-0.576 1.408zM26.016 16q0 0.832 0.576 1.44t1.408 0.576 1.408-0.576 0.608-1.44-0.608-1.408-1.408-0.576-1.408 0.576-0.576 1.408z"
        ></path>
      </g>
    </svg>